<svg width="226" height="50" viewBox="0 0 226 50" fill="none" xmlns="http://www.w3.org/2000/svg">
<ellipse cx="48.0768" cy="25" rx="24.6862" ry="25" fill="#F5CC37"/>
<ellipse cx="48.0768" cy="25" rx="24.6862" ry="25" fill="#F5CC37"/>
<rect x="12.8984" y="17.5005" width="18.5146" height="1.875" rx="0.9375" fill="#F5CC37"/>
<rect x="0.556641" y="23.1245" width="18.5146" height="1.875" rx="0.9375" fill="#293BDD"/>
<rect x="11.0469" y="11.875" width="8.64016" height="1.875" rx="0.9375" fill="#293BDD"/>
<rect x="12.8984" y="29.3745" width="18.5146" height="1.875" rx="0.9375" fill="#F5CC37"/>
<rect x="20.3047" y="34.375" width="18.5146" height="1.875" rx="0.9375" fill="#F5CC37"/>
<rect x="6.10938" y="29.3745" width="3.70292" height="1.875" rx="0.9375" fill="#F5CC37"/>
<rect x="22.7734" y="6.25" width="3.70292" height="1.875" rx="0.9375" fill="#F5CC37"/>
<rect x="23.3906" y="45.6255" width="3.70292" height="1.875" rx="0.9375" fill="#F5CC37"/>
<rect x="12.8984" y="40" width="18.5146" height="1.875" rx="0.9375" fill="#293BDD"/>
<path d="M78.2053 11.5005H65.7471C65.7471 11.5005 62.0794 27.1418 60.3329 32.7491C58.5865 38.3564 54.707 39.832 54.707 39.832C54.707 39.832 55.501 39.7729 59.809 39.832C64.117 39.891 67.4353 38.2973 68.1921 34.8149C68.949 31.3915 69.3565 29.975 69.3565 29.975H75.2945C81.5819 29.975 85.3659 25.6662 86.2392 21.2394C87.1124 16.8126 86.8214 11.5005 78.2053 11.5005ZM80.1265 19.7638C79.5443 23.5414 74.887 23.4823 72.0344 23.4823C71.9762 23.4823 71.918 23.4823 71.8016 23.4823H69.7058L71.1612 16.7536C77.041 16.8127 80.5922 16.8126 80.1265 19.7638Z" fill="#293BDD"/>
<path fill-rule="evenodd" clip-rule="evenodd" d="M105.556 13.5491C105.44 12.9638 105.089 12.437 104.564 12.0858C104.038 11.7346 103.396 11.5005 102.637 11.5005H98.3169C97.558 11.5005 96.799 11.6761 96.0984 12.0858C95.3979 12.437 94.9308 12.9638 94.5805 13.5491L81.2111 37.7248C80.9191 38.2516 80.1602 39.7734 80.1602 39.7734C80.1602 39.7734 82.0284 39.7734 82.6122 39.7734H86.8157C87.5747 39.7734 88.2752 39.5978 88.9174 39.1881C89.618 38.7784 90.0851 38.2516 90.3186 37.6663L91.6614 34.7398C91.7198 34.5642 91.8949 34.4471 92.1868 34.4471H99.9516C100.185 34.4471 100.302 34.5642 100.36 34.7398L100.535 37.6663C100.594 38.2516 100.827 38.7784 101.294 39.1881C101.82 39.5393 102.462 39.7734 103.221 39.7734H107.6C108.242 39.7734 108.767 39.5393 109.234 39.1296C109.701 38.7199 109.877 38.2516 109.818 37.7248L105.556 13.5491ZM99.7181 28.711C99.6597 28.7696 99.543 28.7696 99.4846 28.7696H94.814C94.6973 28.7696 94.6389 28.7696 94.5805 28.711C94.5221 28.6525 94.5221 28.5355 94.5805 28.4769L99.1343 17.9974C99.1343 17.9974 99.1343 17.9974 99.1927 17.9974C99.2511 17.9974 99.251 17.9974 99.251 18.056L99.9516 28.5355C99.8932 28.5355 99.8349 28.594 99.7181 28.711ZM138.717 12.0882C138.484 12.0882 138.25 12.0882 138.075 12.0882C137.841 12.0882 137.608 12.0882 137.316 12.0882H132.412C131.653 12.0882 130.894 12.2638 130.193 12.6735C129.551 13.0247 129.026 13.493 128.617 14.1368L122.779 23.5018C122.779 23.5018 122.779 23.5603 122.721 23.5603C122.662 23.5603 122.662 23.5603 122.662 23.5018L120.444 14.1368C120.269 13.5515 119.918 13.0247 119.393 12.6735C118.809 12.3224 118.167 12.0882 117.466 12.0882H112.387C111.803 12.0882 111.278 12.3223 110.927 12.7321C110.519 13.1418 110.46 13.61 110.636 14.0198L116.824 29.2378C116.882 29.4134 116.941 29.6475 116.882 29.8817L115.364 37.6078C115.248 38.1931 115.364 38.7199 115.773 39.1296C116.182 39.5393 116.766 39.7734 117.466 39.7734H121.611C122.312 39.7734 122.954 39.5393 123.538 39.1296C124.122 38.7199 124.472 38.1931 124.589 37.6078L126.107 29.8817C126.165 29.589 126.223 29.3549 126.34 29.2378L140.002 12.0882H138.717ZM171.617 11.6785H168.347C167.705 11.6785 167.063 11.9126 166.538 12.3223C165.954 12.7321 165.604 13.2589 165.487 13.8442L162.918 27.0137C162.918 27.0137 162.918 27.0722 162.86 27.0722C162.86 27.0722 162.86 27.0722 162.801 27.0722L158.014 13.6686C157.547 12.3809 156.496 11.6785 154.861 11.6785H151.592C150.95 11.6785 150.307 11.9126 149.782 12.3223C149.198 12.7321 148.848 13.2589 148.731 13.8442L143.71 39.7734H149.373C150.016 39.7734 150.658 39.5393 151.183 39.1296C151.709 38.7199 152.117 38.1931 152.234 37.6078L154.803 24.4383C154.803 24.4383 154.803 24.4383 154.861 24.4383C154.861 24.4383 154.861 24.4383 154.92 24.4383L159.707 37.8419C160.174 39.1296 161.225 39.832 162.86 39.832H166.129C166.771 39.832 167.413 39.5978 167.939 39.1881C168.523 38.7784 168.873 38.2516 168.99 37.6663L173.602 13.9612C173.719 13.3759 173.602 12.8491 173.193 12.4394C172.785 11.9126 172.259 11.6785 171.617 11.6785ZM196.137 11.6785H181.717C181.075 11.6785 180.432 11.9126 179.907 12.3223C179.323 12.7321 178.973 13.2589 178.856 13.8442L174.244 37.5493C174.127 38.1346 174.244 38.6613 174.653 39.0711C175.061 39.4808 175.587 39.7149 176.229 39.7149H190.649C191.292 39.7149 191.934 39.4808 192.459 39.0711C193.043 38.6613 193.393 38.1346 193.51 37.5493L193.86 35.7933C193.977 35.208 193.86 34.6812 193.452 34.2715C193.043 33.8618 192.518 33.6277 191.875 33.6277H183.994C183.76 33.6277 183.644 33.5106 183.702 33.2765L184.636 28.5355C184.694 28.3013 184.811 28.2428 185.103 28.2428H192.167C192.809 28.2428 193.452 28.0087 193.977 27.599C194.561 27.1893 194.911 26.6625 195.028 26.0771L195.32 24.6724C195.437 24.0871 195.32 23.5603 194.911 23.1506C194.503 22.7409 193.977 22.5068 193.335 22.5068H186.271C186.037 22.5068 185.92 22.3897 185.979 22.1556L186.738 18.1754C186.796 17.9413 186.913 17.8828 187.205 17.8828H195.086C195.729 17.8828 196.371 17.6487 196.896 17.239C197.48 16.8292 197.83 16.3025 197.947 15.7172L198.297 13.9612C198.414 13.3759 198.297 12.8491 197.889 12.4394C197.305 11.9126 196.779 11.6785 196.137 11.6785ZM203.201 11.6785C202.559 11.6785 201.917 11.9126 201.392 12.3223C200.808 12.7321 200.457 13.2589 200.341 13.8442L199.932 15.8342C199.815 16.4195 199.932 16.9463 200.341 17.356C200.749 17.7658 201.275 17.9999 201.917 17.9999H207.113C207.347 17.9999 207.463 18.1169 207.405 18.3511L203.669 37.5493C203.552 38.1346 203.668 38.6613 204.077 39.0711C204.486 39.4808 205.011 39.7149 205.654 39.7149H211.959L216.104 18.2925C216.162 18.0584 216.279 17.9413 216.571 17.9413H221.767C222.409 17.9413 223.051 17.7072 223.577 17.2975C224.161 16.8878 224.511 16.361 224.628 15.7757L225.445 11.62H203.201V11.6785Z" fill="#293BDD"/>
<ellipse cx="136.21" cy="36.135" rx="3.61063" ry="3.65653" fill="#293BDD"/>
<path d="M37.7275 37.3918C39.6173 38.7559 40.9246 39.438 43.9794 39.438C47.7849 39.438 50.3607 38.5592 52.4835 36.8016C54.6322 35.044 56.1078 32.2895 56.9103 28.5382L60.2886 12.4837C60.3145 12.405 60.3274 12.3395 60.3274 12.287C60.3274 12.0771 60.2627 11.9066 60.1333 11.7754C59.978 11.5918 59.7579 11.5 59.4732 11.5H54.0527C53.7938 11.5 53.5479 11.5918 53.3149 11.7754C53.0819 11.9591 52.9395 12.1952 52.8878 12.4837L49.5094 28.4989C48.3021 32.8098 47.624 33.7537 44.4842 33.6143C42.2001 33.5129 42.0207 32.5145 42.6043 28.4989L45.5943 12.4837C45.6202 12.405 45.6332 12.3263 45.6332 12.2476C45.6332 12.0902 45.5814 11.9328 45.4778 11.7754C45.3225 11.5918 45.1025 11.5 44.8177 11.5H38.6206L35.2423 28.5382C35.0352 29.5875 34.9316 30.4926 34.9316 31.2533C34.9316 33.9553 35.8636 36.0015 37.7275 37.3918Z" fill="#293BDD"/>
</svg>
